<?xml version="1.0" encoding="UTF-8" standalone="no"?>
<svg
   xmlns:dc="http://purl.org/dc/elements/1.1/"
   xmlns:cc="http://creativecommons.org/ns#"
   xmlns:rdf="http://www.w3.org/1999/02/22-rdf-syntax-ns#"
   xmlns:svg="http://www.w3.org/2000/svg"
   xmlns="http://www.w3.org/2000/svg"
   id="svg2"
   height="50"
   width="50"
   version="1.1"
   viewBox="0 0 50 50.000001">
  <defs
     id="defs12" />
  <metadata
     id="metadata7">
    <rdf:RDF>
      <cc:Work
         rdf:about="">
        <dc:format>image/svg+xml</dc:format>
        <dc:type
           rdf:resource="http://purl.org/dc/dcmitype/StillImage" />
        <dc:title></dc:title>
      </cc:Work>
    </rdf:RDF>
  </metadata>
  <g
     id="layer1"
     fill-rule="evenodd"
     transform="matrix(1.0285714,0,0,1.0285714,6.4857148,-1035.5462)">
    <path
       id="path4198"
       stroke-linejoin="round"
       style="color:#000000;text-indent:0;text-decoration:none;text-decoration-line:none;text-decoration-style:solid;text-decoration-color:#000000;text-transform:none;white-space:normal;isolation:auto;mix-blend-mode:normal;solid-color:#000000;fill:#707377;fill-opacity:1;stroke:#707377;stroke-opacity:1;color-rendering:auto;image-rendering:auto;shape-rendering:auto"
       d="m 18,2.9668 a 15,15 0 0 0 -15,15 15,15 0 0 0 10.924,14.422 l 3.281,5.468 c 0.44,0.733 1.152,0.733 1.592,0 l 3.273,-5.457 A 15,15 0 0 0 33,17.9668 15,15 0 0 0 18.215,2.9788 9.0002,15 0 0 0 18.131,2.9686 9.0002,15 0 0 0 18.088,2.9705 15,15 0 0 0 18,2.9666 Z"
       transform="translate(0,1010.4)"
       stroke="#d3d7cf"
       stroke-width="5"
       fill="#d3d7cf" />
    <path
       id="path4180"
       stroke-linejoin="round"
       style="color:#000000;text-indent:0;text-decoration:none;text-decoration-line:none;text-decoration-style:solid;text-decoration-color:#000000;text-transform:none;white-space:normal;isolation:auto;mix-blend-mode:normal;solid-color:#000000;color-rendering:auto;image-rendering:auto;shape-rendering:auto"
       d="m 18,2.9668 a 15,15 0 0 0 -15,15 15,15 0 0 0 10.924,14.422 l 3.281,5.468 c 0.44,0.733 1.152,0.733 1.592,0 l 3.273,-5.457 A 15,15 0 0 0 33,17.9668 15,15 0 0 0 18.215,2.9788 9.0002,15 0 0 0 18.131,2.9686 9.0002,15 0 0 0 18.088,2.9705 15,15 0 0 0 18,2.9666 Z"
       transform="translate(0,1010.4)"
       stroke="#fff"
       stroke-width="3" />
    <g
       id="colorized"
       fill="#babdb6"
       style="fill:#b7b9bb;fill-opacity:1">
      <path
         id="path4148"
         style="color:#000000;text-indent:0;text-decoration:none;text-decoration-line:none;text-decoration-style:solid;text-decoration-color:#000000;text-transform:none;white-space:normal;isolation:auto;mix-blend-mode:normal;solid-color:#000000;fill:#b7b9bb;fill-opacity:1;color-rendering:auto;image-rendering:auto;shape-rendering:auto"
         d="m 24.364,1018.2 a 9.0002,14.789 0 0 0 -0.4661,-0.7149 9.0002,14.789 0 0 0 -0.70854,-0.9089 9.0002,14.789 0 0 0 -0.75984,-0.794 9.0002,14.789 0 0 0 -0.80327,-0.6612 9.0002,14.789 0 0 0 -0.84208,-0.526 9.0002,14.789 0 0 0 -0.86694,-0.388 9.0002,14.789 0 0 0 -0.8872,-0.2426 9.0002,14.789 0 0 0 -0.89968,-0.095 9.0002,14.789 0 0 0 -0.898,0.051 9.0002,14.789 0 0 0 -0.89192,0.1991 9.0002,14.789 0 0 0 -0.8747,0.3448 9.0002,14.789 0 0 0 -0.84996,0.4876 9.0002,14.789 0 0 0 -0.81564,0.6255 9.0002,14.789 0 0 0 -0.77222,0.7531 9.0002,14.789 0 0 0 -0.72564,0.8756 9.0002,14.789 0 0 0 -0.66646,0.9933 9.0002,14.789 0 0 0 -0.43471,0.7664 9.0002,14.789 0 0 0 -0.55284,1.1647 9.0002,14.789 0 0 0 -0.4832,1.2485 9.0002,14.789 0 0 0 -0.40242,1.3199 9.0002,14.789 0 0 0 -0.32007,1.3837 9.0002,14.789 0 0 0 -0.23614,1.4246 9.0002,14.789 0 0 0 -0.1476,1.4579 9.0002,14.789 0 0 0 -0.057379,1.4781 9.0002,14.789 0 0 0 0.031499,1.4757 9.0002,14.789 0 0 0 0.12117,1.4654 9.0002,14.789 0 0 0 0.2097,1.4373 9.0002,14.789 0 0 0 0.29678,1.3965 9.0002,14.789 0 0 0 0.38071,1.3404 9.0002,14.789 0 0 0 0.45822,1.2688 9.0002,14.789 0 0 0 0.53292,1.1923 9.0002,14.789 0 0 0 0.60448,1.0953 l 5.5685,9.15 c 0.43944,0.7219 1.1517,0.7218 1.5911,0 l 5.5685,-9.15 a 9.0002,14.789 0 0 0 0.43471,-0.7665 9.0002,14.789 0 0 0 0.55284,-1.1646 9.0002,14.789 0 0 0 0.4832,-1.2485 9.0002,14.789 0 0 0 0.40242,-1.3199 9.0002,14.789 0 0 0 0.32007,-1.3837 9.0002,14.789 0 0 0 0.23614,-1.4246 9.0002,14.789 0 0 0 0.1476,-1.4579 9.0002,14.789 0 0 0 0.05738,-1.4781 9.0002,14.789 0 0 0 -0.0315,-1.4756 9.0002,14.789 0 0 0 -0.12128,-1.4655 9.0002,14.789 0 0 0 -0.2097,-1.4373 9.0002,14.789 0 0 0 -0.29678,-1.3965 9.0002,14.789 0 0 0 -0.38071,-1.3404 9.0002,14.789 0 0 0 -0.45834,-1.2688 9.0002,14.789 0 0 0 -0.53281,-1.1923 9.0002,14.789 0 0 0 -0.60436,-1.0952 z" />
      <circle
         id="path4152"
         style="color:#000000;isolation:auto;mix-blend-mode:normal;solid-color:#000000;fill:#b7b9bb;fill-opacity:1;color-rendering:auto;image-rendering:auto;shape-rendering:auto"
         cy="1028.3"
         cx="18"
         r="15" />
    </g>
  </g>
</svg>
