<?xml version="1.0" encoding="UTF-8" standalone="no"?>
<svg
   xmlns:dc="http://purl.org/dc/elements/1.1/"
   xmlns:cc="http://creativecommons.org/ns#"
   xmlns:rdf="http://www.w3.org/1999/02/22-rdf-syntax-ns#"
   xmlns:svg="http://www.w3.org/2000/svg"
   xmlns="http://www.w3.org/2000/svg"
   id="svg2"
   height="50"
   viewBox="0 0 50 50.000001"
   width="50"
   version="1.1">
  <defs
     id="defs14" />
  <metadata
     id="metadata7">
    <rdf:RDF>
      <cc:Work
         rdf:about="">
        <dc:format>image/svg+xml</dc:format>
        <dc:type
           rdf:resource="http://purl.org/dc/dcmitype/StillImage" />
        <dc:title></dc:title>
      </cc:Work>
    </rdf:RDF>
  </metadata>
  <g
     id="layer1"
     fill-rule="evenodd"
     transform="matrix(1.0285714,0,0,1.0285714,6.4857148,-1035.3371)">
    <path
       id="rect4159"
       style="color:#000000;isolation:auto;mix-blend-mode:normal;solid-color:#000000;fill:#707377;fill-opacity:1;stroke:#707377;stroke-opacity:1;color-rendering:auto;image-rendering:auto;shape-rendering:auto"
       d="m 18,2.9668 a 15,15 0 0 0 -15,15 15,15 0 0 0 14,14.951 v 5.082 h 2 v -5.068 a 15,15 0 0 0 14,-14.965 15,15 0 0 0 -15,-15 z"
       transform="translate(0,1010.4)"
       stroke="#d3d7cf"
       stroke-width="5" />
    <path
       id="path4172"
       style="color:#000000;isolation:auto;mix-blend-mode:normal;solid-color:#000000;color-rendering:auto;image-rendering:auto;shape-rendering:auto"
       d="m 18,2.9668 a 15,15 0 0 0 -15,15 15,15 0 0 0 14,14.951 v 5.082 h 2 v -5.068 a 15,15 0 0 0 14,-14.965 15,15 0 0 0 -15,-15 z"
       transform="translate(0,1010.4)"
       stroke="#fff"
       stroke-width="3" />
    <g
       id="qsdf">
      <g
         id="g4145">
        <rect
           id="rect4141"
           style="color:#000000;isolation:auto;mix-blend-mode:normal;solid-color:#000000;fill:#3b3f45;fill-opacity:1;color-rendering:auto;image-rendering:auto;shape-rendering:auto"
           height="8"
           width="1"
           y="1040.4"
           x="18" />
        <rect
           id="rect4143"
           style="color:#000000;isolation:auto;mix-blend-mode:normal;solid-color:#000000;fill:#707377;fill-opacity:1;color-rendering:auto;image-rendering:auto;shape-rendering:auto"
           height="8"
           width="1"
           y="1040.4"
           x="17"
           fill="#888a85" />
      </g>
      <circle
         id="colorized"
         style="color:#000000;isolation:auto;mix-blend-mode:normal;solid-color:#000000;fill:#b7b9bb;fill-opacity:1;color-rendering:auto;image-rendering:auto;shape-rendering:auto"
         cx="18"
         cy="1028.3"
         r="15"
         fill="#babdb6" />
    </g>
  </g>
</svg>
